<?xml version="1.0" encoding="UTF-8" standalone="no"?>
<!-- Created with Inkscape (http://www.inkscape.org/) -->

<svg
   width="300"
   height="300"
   viewBox="0 0 79.374999 79.374999"
   version="1.1"
   id="svg5"
   xml:space="preserve"
   inkscape:version="1.2.2 (732a01da63, 2022-12-09)"
   sodipodi:docname="nefo icon.svg"
   inkscape:export-filename="..\..\..\Downloads\nefo icon.svg"
   inkscape:export-xdpi="96"
   inkscape:export-ydpi="96"
   xmlns:inkscape="http://www.inkscape.org/namespaces/inkscape"
   xmlns:sodipodi="http://sodipodi.sourceforge.net/DTD/sodipodi-0.dtd"
   xmlns="http://www.w3.org/2000/svg"
   xmlns:svg="http://www.w3.org/2000/svg"><sodipodi:namedview
     id="namedview7"
     pagecolor="#ffffff"
     bordercolor="#000000"
     borderopacity="0.25"
     inkscape:showpageshadow="2"
     inkscape:pageopacity="0"
     inkscape:pagecheckerboard="0"
     inkscape:deskcolor="#d1d1d1"
     inkscape:document-units="mm"
     showgrid="false"
     showguides="false"
     inkscape:lockguides="false"
     inkscape:zoom="2.3392869"
     inkscape:cx="92.977052"
     inkscape:cy="145.34344"
     inkscape:window-width="1920"
     inkscape:window-height="1009"
     inkscape:window-x="-8"
     inkscape:window-y="-8"
     inkscape:window-maximized="1"
     inkscape:current-layer="layer4"><sodipodi:guide
       position="10.481536,36.30887"
       orientation="1,0"
       id="guide1897"
       inkscape:locked="false" /><sodipodi:guide
       position="69.285802,37.195526"
       orientation="1,0"
       id="guide1899"
       inkscape:locked="false" /><sodipodi:guide
       position="10.481536,28.882313"
       orientation="0,-1"
       id="guide1901"
       inkscape:locked="false" /><sodipodi:guide
       position="6.8399146,51.635345"
       orientation="0,-1"
       id="guide1903"
       inkscape:locked="false" /><sodipodi:guide
       position="16.878123,59.995241"
       orientation="-0.4524659,0.8917817"
       id="guide1909"
       inkscape:locked="false" /><sodipodi:guide
       position="62.942324,60.319888"
       orientation="-0.44323987,-0.89640304"
       id="guide1972"
       inkscape:locked="false" /><sodipodi:guide
       position="64.397768,19.365953"
       orientation="0.45555284,-0.89020874"
       id="guide1974"
       inkscape:locked="false" /><sodipodi:guide
       position="14.576824,20.172044"
       orientation="0.46607901,0.8847431"
       id="guide1976"
       inkscape:locked="false" /></sodipodi:namedview><defs
     id="defs2" /><g
     inkscape:groupmode="layer"
     id="layer4"
     inkscape:label="Layer 4"
     style="display:inline"><path
       style="display:inline;fill:#ffffff;fill-opacity:1;stroke:none;stroke-width:0.836001;stroke-linecap:round;stroke-linejoin:round;stroke-dasharray:none;stroke-opacity:1"
       d="M 5.4290049,54.742466 6.3338389,22.847062 11.084218,17.191848 39.586492,3.8455451 69.44602,17.418057 73.743983,23.299479 V 56.778342 L 71.481896,60.623886 45.920331,74.196399 H 34.157488 L 7.4648816,59.945261 Z"
       id="path7465" /><path
       id="path1978"
       style="display:inline;fill:#4c1d95;fill-opacity:1;stroke-width:0.318881"
       d="M 39.991729,2.5402495 C 37.83141,2.5226653 35.571684,3.0170351 33.220479,4.1209552 28.794687,6.1989195 17.028216,11.758308 10.909987,15.469897 c -6.1182277,3.711589 -6.3495434,7.947114 -6.6435716,9.535304 -0.294027,1.588188 -0.1107719,26.315491 0,27.421939 0.2584898,6.872835 2.1291501,8.014957 4.207118,9.984977 2.0779626,1.970018 18.1887376,10.06615 23.9908476,12.737821 5.802111,2.671671 9.121623,1.807957 12.737821,0.83644 3.616198,-0.971513 20.249401,-10.36792 24.153405,-12.116873 4.572428,-2.0484 5.720779,-6.12589 5.85571,-9.823045 0.134939,-3.697155 0.135347,-20.348179 -0.05356,-27.931402 C 74.96885,18.531836 70.62383,16.29229 67.493388,14.538166 64.362949,12.784037 49.196027,5.3089515 45.471881,3.716748 43.72619,2.970399 41.897895,2.5557655 39.991729,2.5402495 Z m -0.242275,3.1427256 c 1.212759,-0.00554 2.416616,0.2331814 3.59053,0.7324311 2.347828,0.9985054 21.525906,10.2558558 23.234752,11.5090068 0.870633,0.638463 1.890291,1.525564 -0.07972,2.551052 -1.970023,1.025489 -19.835648,10.011442 -22.588274,11.27981 -2.752631,1.268369 -6.125787,0.944712 -8.527588,-0.350646 C 32.977349,30.109277 14.356328,21.06915 13.007001,20.232567 11.657672,19.395985 12.920406,18.268037 13.627948,17.857149 17.649303,15.521829 33.789143,7.3318396 36.107847,6.4154062 37.315291,5.9381855 38.536689,5.6884829 39.749449,5.6829751 Z M 69.9205,22.924998 c 1.244234,-0.01157 1.913619,0.682823 2.028113,2.300057 0.152665,2.156313 0.130553,26.707387 0.06103,28.019842 -0.10824,2.04342 -0.308924,5.08814 -3.533854,6.862803 -3.224928,1.774666 -19.469757,10.629154 -22.351203,11.755018 -2.881444,1.125862 -3.949826,-0.248396 -4.102484,-2.194802 -0.152679,-1.946406 -0.05748,-24.578085 -0.01931,-28.165581 0.03817,-3.587493 1.39356,-5.724499 4.275005,-7.327423 2.881445,-1.602924 20.346512,-10.400115 21.892188,-11.010753 0.386419,-0.15266 1.335763,-0.235285 1.750508,-0.239161 z M 9.9346585,23.182221 c 0.4147435,0.0039 0.8349215,0.08588 1.2213405,0.238537 1.545672,0.610639 19.539913,9.407832 22.421354,11.010754 2.881443,1.602923 4.236838,3.740557 4.275005,7.328046 0.03817,3.587493 0.133371,26.219175 -0.01931,28.165581 -0.152658,1.946403 -1.221667,3.320039 -4.103108,2.194179 C 30.8485,70.993455 14.075122,62.139587 10.850196,60.364923 7.6252721,58.590262 7.4245811,55.544914 7.3163425,53.501498 7.2468254,52.189043 7.2247096,27.637965 7.377375,25.481656 7.491871,23.864422 8.6904227,23.170592 9.9346545,23.182221 Z"
       sodipodi:nodetypes="sssscsssssssssssssssscsssssssscsssssscsscssssss" /><path
       d="m 34.005508,25.428915 q -0.96338,-0.592263 -1.081806,-1.199037 -0.09174,-0.62373 0.736563,-1.149114 l 2.084021,-1.321929 -7.931827,-4.87629 q -0.995491,-0.612002 -1.258292,-1.207424 -0.230698,-0.575675 0.517418,-1.05022 0.42749,-0.27116 1.192041,-0.435231 0.796659,-0.144335 2.331403,-0.235389 l 19.405998,-1.319006 q 1.010654,-0.07951 1.850463,0.06971 0.839813,0.149189 1.546292,0.583515 0.83493,0.513294 0.953352,1.120071 0.145143,0.589833 -0.736558,1.149112 l -10.927757,6.931655 1.573524,0.967362 q 0.931264,0.57252 1.006784,1.086183 0.134363,0.51645 -0.560319,0.957088 -0.694673,0.440649 -1.550422,0.381785 -0.796912,-0.05604 -1.728179,-0.628588 l -1.573519,-0.967362 -2.084024,1.321935 q -0.828263,0.52538 -1.828389,0.47788 -0.973407,-0.06444 -1.936786,-0.656711 z m 4.570912,-5.466547 8.336086,-5.287722 0.931265,0.572522 -16.823089,1.204815 0.908417,-0.576226 z"
       style="font-weight:normal;font-size:22.4811px;font-family:Nunito;-inkscape-font-specification:Nunito;display:inline;stroke-width:1.75379"
       id="path1738" /><g
       aria-label="四"
       transform="matrix(0.91484135,0.51888903,0,1.0930857,0,0)"
       id="text1797"
       style="font-size:30.0984px;font-family:Nunito;-inkscape-font-specification:Nunito;stroke:#000000;stroke-width:0.93854;stroke-linecap:round;stroke-linejoin:round"><path
         d="m 15.047505,35.32929 v 3.644728 h 18.8115 v -6.819169 q -0.58786,3.174441 -2.704153,3.174441 h -3.409585 q -1.998722,0 -1.998722,-2.116294 v -9.640894 h -3.644728 v 4.467731 q 0,6.819169 -5.761022,9.170607 z m 18.8115,-4.35016 v -7.407028 h -5.761022 v 8.582747 q 0,0.940575 0.823003,0.940575 h 1.175719 q 1.058147,0 1.410862,-2.704153 z m 2.351437,-9.640894 v 21.633226 h -2.351437 v -1.763579 h -18.8115 v 1.998722 H 12.696067 V 21.338236 Z m -21.162937,2.233866 v 11.2869 q 4.702875,-1.528434 4.702875,-7.171884 v -4.115016 z"
         id="path7318" /></g><g
       aria-label="é"
       transform="skewY(-26.436924)"
       id="text1851"
       style="font-size:35.1696px;font-family:Nunito;-inkscape-font-specification:Nunito;stroke-width:5.95312;stroke-linecap:round;stroke-linejoin:round"><path
         d="m 58.60347,88.825878 q -2.919077,0 -5.029253,-1.090258 -2.110176,-1.090257 -3.270773,-3.094924 -1.125427,-2.004668 -1.125427,-4.747897 0,-2.672889 1.090257,-4.677557 1.125428,-2.004667 3.059756,-3.130094 1.969497,-1.160597 4.466539,-1.160597 1.828819,0 3.270773,0.597883 1.477123,0.597883 2.497042,1.723311 1.055088,1.125427 1.582632,2.743229 0.562713,1.582632 0.562713,3.587299 0,0.633053 -0.457204,0.984749 -0.422036,0.316526 -1.230937,0.316526 H 52.730146 v -2.532211 h 9.882658 l -0.562713,0.527544 q 0,-1.617802 -0.492375,-2.708059 -0.457204,-1.090258 -1.371614,-1.652972 -0.87924,-0.597883 -2.215685,-0.597883 -1.477123,0 -2.532211,0.703392 -1.019919,0.668223 -1.582632,1.934328 -0.527544,1.230936 -0.527544,2.954247 v 0.246187 q 0,2.883907 1.336444,4.325861 1.371615,1.406784 4.009335,1.406784 0.91441,0 2.039837,-0.211018 1.160597,-0.246187 2.180515,-0.8089 0.738562,-0.422036 1.301275,-0.351696 0.562714,0.03517 0.879241,0.386865 0.351696,0.351696 0.422035,0.87924 0.07034,0.492375 -0.211018,1.019919 -0.246187,0.527544 -0.87924,0.914409 -1.230936,0.773732 -2.848738,1.160597 -1.582632,0.351696 -2.954246,0.351696 z m 0.87924,-20.046673 q -0.351696,0.492375 -0.844071,0.562714 -0.492374,0.07034 -0.949579,-0.175848 -0.457205,-0.246187 -0.668222,-0.703392 -0.175848,-0.457205 0.105509,-1.019919 l 2.672889,-5.24027 q 0.316527,-0.668223 0.844071,-0.844071 0.527544,-0.211017 1.090257,-0.07034 0.562714,0.140679 0.94958,0.527544 0.422035,0.386866 0.492374,0.949579 0.105509,0.527544 -0.281357,1.090258 z"
         style="stroke-width:5.95311"
         id="path7321" /></g></g></svg>
